<svg width="34" height="35" viewBox="0 0 34 35" fill="none" xmlns="http://www.w3.org/2000/svg">
<mask id="mask0_108_368" style="mask-type:alpha" maskUnits="userSpaceOnUse" x="14" y="8" width="22" height="99">
<path d="M27.5938 30.9062C27.2083 30.8125 26.9531 30.625 26.8281 30.3438C26.724 30.0938 26.6146 29.6875 26.5 29.125C26.3958 28.5521 26.3229 28.0104 26.2812 27.5C26.2604 27.1667 26.2292 26.7292 26.1875 26.1875C26.1562 25.6458 26.1198 25.0938 26.0781 24.5312C26.0365 23.9583 25.9948 23.474 25.9531 23.0781C25.9219 22.6823 25.9062 22.4688 25.9062 22.4375C25.8854 22.4167 25.8177 22.4062 25.7031 22.4062C25.5365 22.4062 25.2552 22.4271 24.8594 22.4688C24.2031 22.5208 23.4271 22.5938 22.5312 22.6875C21.7292 22.7604 20.9635 22.8333 20.2344 22.9062C19.5052 22.9688 18.974 23 18.6406 23L18.6094 23.2188C18.5677 23.5312 18.5208 23.9531 18.4688 24.4844C18.4167 25.0052 18.375 25.5365 18.3438 26.0781C18.3125 26.526 18.2812 26.849 18.25 27.0469C18.2292 27.2344 18.1771 27.349 18.0938 27.3906C18.0104 27.4323 17.8698 27.4531 17.6719 27.4531H17.625C17.1875 27.4531 16.9271 27.2917 16.8438 26.9688C16.8125 26.8333 16.7917 26.6302 16.7812 26.3594C16.7812 26.0781 16.7812 25.8385 16.7812 25.6406V25.0156C16.7917 24.5885 16.8177 24.2135 16.8594 23.8906C17.1719 20.9323 17.901 18.0365 19.0469 15.2031C20.4948 11.7031 22.1302 9.56771 23.9531 8.79688C24.4427 8.61979 24.9271 8.53125 25.4062 8.53125C25.9375 8.53125 26.4583 8.64062 26.9688 8.85938C27.8646 9.28646 28.5625 9.94792 29.0625 10.8438C29.5625 11.7396 29.9219 12.6615 30.1406 13.6094C30.4219 14.5156 30.5625 16.5365 30.5625 19.6719C30.5625 20.8594 30.5312 22.4219 30.4688 24.3594C30.4167 26.2969 30.2656 27.9271 30.0156 29.25C29.9219 29.7292 29.8281 30.0781 29.7344 30.2969C29.6406 30.5052 29.526 30.6562 29.3906 30.75C29.1823 30.875 28.9688 30.9479 28.75 30.9688C28.5417 30.9896 28.3958 31 28.3125 31C28.0729 31 27.8333 30.9688 27.5938 30.9062ZM24.75 21.1719L25.8438 21.1406L25.8281 20.9844C25.8281 20.9219 25.8177 20.651 25.7969 20.1719C25.7865 19.6823 25.776 19.0938 25.7656 18.4062C25.6615 14.9062 25.5781 12.901 25.5156 12.3906C25.4844 12.1719 25.4635 11.9375 25.4531 11.6875C25.4323 11.3021 25.3906 10.9479 25.3281 10.625C25.2656 10.3021 25.1771 10.0938 25.0625 10C24.9583 9.90625 24.8646 9.85938 24.7812 9.85938C24.6354 9.85938 24.4531 9.92708 24.2344 10.0625C23.9427 10.2604 23.6094 10.5521 23.2344 10.9375C22.8698 11.3125 22.5573 11.6771 22.2969 12.0312C20.7031 14.2917 19.5729 17.3594 18.9062 21.2344L18.875 21.4062H19.2812C20.4167 21.4062 21.5729 21.3594 22.75 21.2656L24.75 21.1719ZM30.3594 55.375C29.2552 55.0417 28.5156 54.4375 28.1406 53.5625C27.7656 52.6771 27.5781 51.7344 27.5781 50.7344V50.5625C27.5781 49.875 27.6042 49.2656 27.6562 48.7344C27.7188 48.1927 27.849 47.3698 28.0469 46.2656C28.1198 45.8385 28.1771 45.4688 28.2188 45.1562C28.2708 44.8438 28.2969 44.6615 28.2969 44.6094C28.2865 44.5885 28.276 44.5781 28.2656 44.5781C28.224 44.5781 28.1354 44.6719 28 44.8594C27.8229 45.1302 27.6198 45.4844 27.3906 45.9219C27.1719 46.3594 26.9792 46.7812 26.8125 47.1875C26.6042 47.75 26.401 48.3281 26.2031 48.9219C26.0156 49.5052 25.901 49.9115 25.8594 50.1406C25.8177 50.3802 25.7656 50.5417 25.7031 50.625C25.651 50.7083 25.5573 50.7812 25.4219 50.8438C25.224 50.9271 25.0417 50.974 24.875 50.9844C24.7188 50.9844 24.6094 50.9844 24.5469 50.9844C24.3594 50.9844 24.1771 50.9635 24 50.9219C23.4792 50.8177 23.099 50.4844 22.8594 49.9219C22.6302 49.349 22.4844 48.7448 22.4219 48.1094C22.3698 47.4635 22.3438 46.9219 22.3438 46.4844V46.2656C22.3438 45.8594 22.3438 45.5312 22.3438 45.2812C22.3438 45.0312 22.3385 44.8438 22.3281 44.7188C22.3281 44.5938 22.3229 44.5208 22.3125 44.5C22.3125 44.4792 22.3073 44.4688 22.2969 44.4688C22.2865 44.4688 22.276 44.4792 22.2656 44.5C22.0469 44.9375 21.6615 46.0573 21.1094 47.8594C20.9427 48.3802 20.776 48.8906 20.6094 49.3906C20.4427 49.8802 20.3177 50.2448 20.2344 50.4844C20.0365 51.0156 19.8385 51.3646 19.6406 51.5312C19.4427 51.6875 19.1146 51.776 18.6562 51.7969C18.5625 51.8073 18.4688 51.8125 18.375 51.8125C17.3229 51.8125 16.526 51.276 15.9844 50.2031C15.7031 49.651 15.5052 49.1094 15.3906 48.5781C15.276 48.0469 15.2188 47.3906 15.2188 46.6094V46.4531C15.2188 45.3802 15.3281 44.6198 15.5469 44.1719C15.7656 43.7031 16.1979 43.4062 16.8438 43.2812C17.0833 43.2292 17.3854 43.2031 17.75 43.2031C18.1042 43.2031 18.401 43.2292 18.6406 43.2812C18.849 43.3229 19.0365 43.3958 19.2031 43.5C19.3802 43.5938 19.5104 43.6927 19.5938 43.7969C19.6146 43.8281 19.6354 43.875 19.6562 43.9375C19.6771 43.9896 19.6927 44.0781 19.7031 44.2031C19.7135 44.3281 19.7188 44.5208 19.7188 44.7812C19.7292 45.0312 19.7344 45.375 19.7344 45.8125L19.7656 47.6719L20.2656 46.4062C20.776 45.0729 21.1875 44.0469 21.5 43.3281C21.8229 42.6094 22.0885 42.1094 22.2969 41.8281C22.5052 41.5469 22.7135 41.3854 22.9219 41.3438C23.0781 41.3021 23.2812 41.2812 23.5312 41.2812H23.6875C24 41.2812 24.2552 41.3073 24.4531 41.3594C25.4635 41.6406 26.0521 42.6562 26.2188 44.4062C26.2396 44.5938 26.2604 44.75 26.2812 44.875C26.3021 45 26.3177 45.0625 26.3281 45.0625C26.3385 45.0625 26.3698 45.0208 26.4219 44.9375C26.4844 44.8438 26.5521 44.7344 26.625 44.6094C26.9167 44.1302 27.1823 43.7812 27.4219 43.5625C27.6615 43.3333 27.9427 43.1823 28.2656 43.1094C28.4844 43.0573 28.6979 43.0312 28.9062 43.0312C29.2812 43.0312 29.6406 43.1146 29.9844 43.2812C30.474 43.5521 30.8542 44.1302 31.125 45.0156C31.2188 45.3073 31.2865 45.6094 31.3281 45.9219C31.3698 46.2344 31.3958 46.6146 31.4062 47.0625C31.4167 47.5 31.4219 47.9323 31.4219 48.3594C31.4219 48.7865 31.4167 49.2812 31.4062 49.8438V52.1875C31.4167 52.7396 31.4323 53.1458 31.4531 53.4062C31.4844 53.6667 31.526 53.875 31.5781 54.0312C31.599 54.0833 31.6146 54.1302 31.625 54.1719C31.6458 54.2031 31.6667 54.2188 31.6875 54.2188C32 54.1146 32.2812 53.724 32.5312 53.0469C32.7917 52.3594 33.0156 51.5521 33.2031 50.625C33.401 49.6979 33.5573 48.8229 33.6719 48C33.7969 47.1667 33.8802 46.5573 33.9219 46.1719L33.9531 46C33.9844 45.7188 34.0104 45.5625 34.0312 45.5312C34.0833 45.4688 34.1719 45.4219 34.2969 45.3906C34.4323 45.349 34.5677 45.3281 34.7031 45.3281H34.7969C34.974 45.3281 35.125 45.3542 35.25 45.4062C35.3125 45.4271 35.3594 45.4531 35.3906 45.4844C35.4219 45.5052 35.4375 45.5417 35.4375 45.5938C35.4479 45.6458 35.4531 45.7292 35.4531 45.8438C35.3906 46.3542 35.3281 46.8698 35.2656 47.3906C35.1302 48.651 34.9583 49.8542 34.75 51C34.5521 52.1354 34.25 53.099 33.8438 53.8906C33.4375 54.6823 32.8646 55.1927 32.125 55.4219C31.9375 55.4635 31.7083 55.4844 31.4375 55.4844H31.2656C30.9323 55.4844 30.6302 55.4479 30.3594 55.375ZM17.4375 63.5156C16.9167 63.3281 16.5781 63.0625 16.4219 62.7188C16.276 62.3646 16.2031 62.0625 16.2031 61.8125C16.2031 61.625 16.2344 61.4323 16.2969 61.2344C16.4531 60.7969 16.7969 60.4844 17.3281 60.2969C17.599 60.2344 17.8542 60.2031 18.0938 60.2031C18.4479 60.2031 18.7656 60.2708 19.0469 60.4062C19.526 60.625 19.8177 60.8906 19.9219 61.2031C20.0365 61.5156 20.0938 61.7656 20.0938 61.9531C20.0938 62.276 20 62.6146 19.8125 62.9688C19.5729 63.3333 19.2917 63.5365 18.9688 63.5781C18.6562 63.6198 18.4219 63.6406 18.2656 63.6406C17.974 63.6406 17.6979 63.599 17.4375 63.5156ZM16.6562 76.7188C16.0833 75.9062 15.6667 74.7292 15.4062 73.1875C15.2917 72.5 15.2344 71.8698 15.2344 71.2969C15.224 70.724 15.2188 70.3958 15.2188 70.3125C15.2188 69.3542 15.276 68.5729 15.3906 67.9688C15.4948 67.4479 15.651 67.0573 15.8594 66.7969C16.0677 66.5365 16.3698 66.349 16.7656 66.2344C17.0781 66.1406 17.4427 66.0938 17.8594 66.0938C18.276 66.0938 18.6406 66.1406 18.9531 66.2344C19.4948 66.4115 19.8281 66.7083 19.9531 67.125C19.974 67.1979 19.9844 67.474 19.9844 67.9531C19.9948 68.4323 19.9948 69.2031 19.9844 70.2656C19.974 70.9219 19.9688 71.5 19.9688 72C19.9688 72.6771 19.9792 73.2135 20 73.6094C20.0417 74.3073 20.1302 74.9427 20.2656 75.5156C20.5156 76.5781 20.8281 77.1094 21.2031 77.1094H21.2344C21.6094 77.0885 22.0417 76.651 22.5312 75.7969C23.0208 74.9844 23.4792 73.6458 23.9062 71.7812C23.9375 71.6562 23.9688 71.5365 24 71.4219C24.0833 71.0573 24.151 70.7552 24.2031 70.5156C24.2656 70.276 24.3125 70.0885 24.3438 69.9531C24.3854 69.8177 24.4167 69.7188 24.4375 69.6562C24.4688 69.5938 24.4948 69.5521 24.5156 69.5312C24.5469 69.5104 24.5781 69.4948 24.6094 69.4844H24.6562C24.7917 69.4323 24.9531 69.4062 25.1406 69.4062C25.3385 69.4062 25.5052 69.4323 25.6406 69.4844C25.7135 69.5156 25.7656 69.5469 25.7969 69.5781C25.8281 69.6094 25.8438 69.6615 25.8438 69.7344C25.8438 69.901 25.776 70.2812 25.6406 70.875C25.5052 71.4583 25.3385 72.1094 25.1406 72.8281C24.9531 73.5365 24.7656 74.1875 24.5781 74.7812C24.2552 75.8854 23.8385 76.7812 23.3281 77.4688C22.8177 78.1562 22.0208 78.5521 20.9375 78.6562C20.8125 78.6667 20.6823 78.6719 20.5469 78.6719C19.8698 78.6719 19.2083 78.5312 18.5625 78.25C17.7917 77.9062 17.1562 77.3958 16.6562 76.7188ZM18.1562 102.641C18.1146 102.318 18.0938 101.979 18.0938 101.625C18.0938 100.948 18.1771 100.208 18.3438 99.4062C18.4688 98.7917 18.651 98.1042 18.8906 97.3438C19.1406 96.5729 19.401 95.849 19.6719 95.1719C19.6719 95.1615 19.6771 95.151 19.6875 95.1406C19.7292 95.0469 19.7656 94.9635 19.7969 94.8906L19.8281 94.7969H19.5938C19.4375 94.7969 19.25 94.8021 19.0312 94.8125H18.8281C18.026 94.8125 17.2969 94.6979 16.6406 94.4688C15.8594 94.1979 15.2448 93.776 14.7969 93.2031C14.349 92.6198 14.125 91.9115 14.125 91.0781C14.125 90.401 14.2812 89.7604 14.5938 89.1562C14.8958 88.5521 15.3073 88.0573 15.8281 87.6719C16.3906 87.2552 17.026 87.0469 17.7344 87.0469C17.9635 87.0469 18.1979 87.0677 18.4375 87.1094C18.8958 87.2031 19.2708 87.4271 19.5625 87.7812C19.8646 88.1354 20.0208 88.6354 20.0312 89.2812C20.0312 89.8854 19.9115 90.4479 19.6719 90.9688C19.4427 91.4792 19 92.1302 18.3438 92.9219L18.1719 93.125C18.4844 93.4688 18.7188 93.6667 18.875 93.7188C19.0417 93.7708 19.1771 93.7969 19.2812 93.7969C19.5 93.7969 19.776 93.7344 20.1094 93.6094C20.526 93.4323 20.8802 93.2604 21.1719 93.0938L21.2969 93.0312C21.599 92.8646 21.8333 92.7656 22 92.7344C22.1667 92.6927 22.3073 92.6719 22.4219 92.6719C22.5885 92.6719 22.7708 92.6927 22.9688 92.7344C23.6354 92.8281 24.0417 93.0365 24.1875 93.3594C24.2708 93.5052 24.3125 93.6771 24.3125 93.875C24.3125 94.0729 24.2604 94.375 24.1562 94.7812C24.0521 95.1771 23.8854 95.7552 23.6562 96.5156C22.8021 99.2448 22.3021 101.089 22.1562 102.047C22.0417 102.724 21.9844 103.266 21.9844 103.672C21.9844 104.089 22.0417 104.37 22.1562 104.516C22.2083 104.578 22.2656 104.609 22.3281 104.609C22.6094 104.609 23.0625 104.146 23.6875 103.219C24.4375 102.073 25.1615 100.672 25.8594 99.0156C26.5677 97.349 27.1146 95.8385 27.5 94.4844C27.5312 94.4427 27.5677 94.4115 27.6094 94.3906C27.6615 94.3698 27.724 94.3594 27.7969 94.3594C27.8802 94.349 28 94.3438 28.1562 94.3438C28.4479 94.3438 28.6458 94.3698 28.75 94.4219C28.8646 94.474 28.9219 94.5729 28.9219 94.7188C28.9219 95.125 28.6667 96 28.1562 97.3438C27.6458 98.6771 27.0938 99.9948 26.5 101.297C25.9167 102.599 25.474 103.495 25.1719 103.984C24.651 104.766 24.0781 105.323 23.4531 105.656C22.8281 106 22.224 106.172 21.6406 106.172H21.4375C20.6458 106.12 19.9479 105.792 19.3438 105.188C18.7396 104.594 18.3438 103.745 18.1562 102.641ZM18.25 91.0938C18.5625 90.4792 18.7188 89.8854 18.7188 89.3125C18.7188 89.1042 18.7083 88.9531 18.6875 88.8594C18.6667 88.7552 18.625 88.6406 18.5625 88.5156C18.5104 88.4323 18.4583 88.3594 18.4062 88.2969C18.3646 88.2344 18.3333 88.2031 18.3125 88.2031C18.2708 88.2031 18.2135 88.2656 18.1406 88.3906C18.0677 88.5156 17.9896 88.6667 17.9062 88.8438C17.8333 89.0208 17.7708 89.1979 17.7188 89.375C17.6562 89.6458 17.6146 89.9271 17.5938 90.2188C17.5833 90.5104 17.5781 90.7188 17.5781 90.8438C17.5781 91.1146 17.5938 91.3594 17.625 91.5781L17.6875 91.9375L17.8594 91.7344C17.901 91.6719 17.9583 91.5833 18.0312 91.4688C18.1146 91.3438 18.1875 91.2188 18.25 91.0938Z" fill="black"/>
</mask>
<g mask="url(#mask0_108_368)">
<rect x="-7.44824" width="40.7414" height="35" fill="url(#paint0_linear_108_368)"/>
</g>
<mask id="mask1_108_368" style="mask-type:alpha" maskUnits="userSpaceOnUse" x="-3" y="0" width="20" height="144">
<path d="M10.7656 22.9531C10.4531 22.8385 10.2188 22.5417 10.0625 22.0625C9.91667 21.5833 9.81771 21.0521 9.76562 20.4688C9.72396 19.875 9.69792 19.3542 9.6875 18.9062C9.6875 18.7292 9.68229 18.5781 9.67188 18.4531L9.625 17.6875L8.39062 17.7188C7.86979 17.7396 7.33333 17.7708 6.78125 17.8125C6.23958 17.8438 5.76042 17.8802 5.34375 17.9219C4.9375 17.9531 4.69271 17.9844 4.60938 18.0156C4.51562 18.0469 4.46875 18.0885 4.46875 18.1406C4.46875 18.151 4.47396 18.1667 4.48438 18.1875C4.49479 18.2188 4.51042 18.3333 4.53125 18.5312C4.55208 18.7188 4.57292 18.9427 4.59375 19.2031C4.61458 19.5052 4.625 19.7969 4.625 20.0781C4.625 20.2969 4.61979 20.5156 4.60938 20.7344C4.57812 21.224 4.52083 21.5625 4.4375 21.75C4.29167 22.0312 3.90104 22.1719 3.26562 22.1719C2.68229 22.1719 2.30729 22.0365 2.14062 21.7656C1.80729 21.2344 1.56771 20.4427 1.42188 19.3906C1.27604 18.3385 1.18229 17.4635 1.14062 16.7656C1.13021 16.6719 1.125 16.5885 1.125 16.5156C0.96875 14.7135 0.869792 13.401 0.828125 12.5781C0.796875 11.7552 0.78125 10.9531 0.78125 10.1719C0.78125 9.70312 0.786458 9.20312 0.796875 8.67188C0.807292 7.29688 0.828125 6.27604 0.859375 5.60938C0.901042 4.94271 0.973958 4.24479 1.07812 3.51562C1.21354 2.51562 1.39062 1.80729 1.60938 1.39062C1.69271 1.22396 1.78125 1.09896 1.875 1.01562C1.96875 0.921875 2.10938 0.833333 2.29688 0.75C2.52604 0.65625 2.82292 0.609375 3.1875 0.609375C3.55208 0.598958 3.85417 0.635417 4.09375 0.71875C4.32292 0.802083 4.49479 0.927083 4.60938 1.09375C4.72396 1.25 4.78125 1.4375 4.78125 1.65625C4.79167 1.875 4.79688 2.02083 4.79688 2.09375C4.79688 2.45833 4.77604 2.94271 4.73438 3.54688C4.58854 5.85938 4.47917 7.98958 4.40625 9.9375C4.33333 11.875 4.29688 13.3229 4.29688 14.2812V14.9219C4.30729 15.349 4.31771 15.7188 4.32812 16.0312C4.34896 16.3333 4.36458 16.5052 4.375 16.5469C4.38542 16.5677 4.40104 16.5885 4.42188 16.6094C4.44271 16.6198 4.47917 16.6302 4.53125 16.6406C4.58333 16.6406 4.66667 16.6458 4.78125 16.6562C4.89583 16.6562 5.04688 16.6615 5.23438 16.6719C5.43229 16.6719 5.67188 16.6719 5.95312 16.6719C6.24479 16.6719 6.59896 16.6719 7.01562 16.6719H9.59375L9.5625 16.2656C9.5 15.5573 9.45833 14.5573 9.4375 13.2656C9.42708 11.9635 9.42188 10.8021 9.42188 9.78125V8.25C9.43229 6.73958 9.46354 5.69271 9.51562 5.10938C9.55729 4.68229 9.59896 4.33854 9.64062 4.07812C9.77604 3.52604 10.0052 3.1875 10.3281 3.0625C10.651 2.92708 10.9323 2.85938 11.1719 2.85938C11.3594 2.85938 11.5417 2.88542 11.7188 2.9375C12.1458 3.0625 12.4427 3.27604 12.6094 3.57812C12.7031 3.76562 12.7708 3.98438 12.8125 4.23438C12.8646 4.48438 12.8958 4.88542 12.9062 5.4375C12.9167 5.97917 12.9219 6.78646 12.9219 7.85938C12.9219 8.71354 12.9115 9.625 12.8906 10.5938C12.8802 11.5625 12.8594 12.3594 12.8281 12.9844C12.8073 13.599 12.7917 14.3958 12.7812 15.375C12.7708 16.3438 12.7656 17.2656 12.7656 18.1406C12.7656 19.0677 12.7604 19.7604 12.75 20.2188C12.75 20.6771 12.7396 21.0104 12.7188 21.2188C12.6979 21.4271 12.6667 21.625 12.625 21.8125C12.5521 22.1771 12.4688 22.4427 12.375 22.6094C12.2917 22.7656 12.1719 22.8698 12.0156 22.9219C11.9323 22.9531 11.8281 22.974 11.7031 22.9844C11.5781 22.9844 11.474 22.9844 11.3906 22.9844H11.1562C10.9896 22.9844 10.8594 22.974 10.7656 22.9531ZM7.89062 46.6719C6.92188 45.7344 6.3125 44.2969 6.0625 42.3594L6 41.7969L5.70312 42.3594C5.35938 43.0052 4.95833 43.4115 4.5 43.5781C4.04167 43.7344 3.63542 43.8125 3.28125 43.8125C3.04167 43.8125 2.79688 43.7865 2.54688 43.7344C1.92188 43.5885 1.35938 43.3073 0.859375 42.8906C-0.046875 42.0677 -0.546875 41.2656 -0.640625 40.4844C-0.734375 39.7031 -0.78125 39.1771 -0.78125 38.9062C-0.78125 37.9271 -0.5625 36.9896 -0.125 36.0938C0.447917 34.9375 1.36979 34.1458 2.64062 33.7188C3.20312 33.5521 3.77083 33.4688 4.34375 33.4688C4.5 33.4688 4.66146 33.474 4.82812 33.4844C5.55729 33.5573 6.15625 33.8125 6.625 34.25C6.72917 34.3542 6.80208 34.4062 6.84375 34.4062C6.85417 34.4062 6.86458 34.401 6.875 34.3906C6.92708 34.3073 7.05208 34.2396 7.25 34.1875C7.44792 34.125 7.67188 34.0938 7.92188 34.0938C8.45312 34.0938 8.84375 34.2344 9.09375 34.5156C9.35417 34.7969 9.54167 35.2917 9.65625 36C9.79167 36.8021 9.90104 37.9167 9.98438 39.3438C10.1094 41.4792 10.3021 43.1615 10.5625 44.3906C10.7812 45.3281 10.9844 45.7969 11.1719 45.7969C11.1927 45.7969 11.2135 45.7917 11.2344 45.7812C11.4323 45.6458 11.6823 45.1667 11.9844 44.3438C12.3385 43.4271 12.6562 42.3021 12.9375 40.9688C13.2188 39.6354 13.3594 38.5521 13.3594 37.7188C13.3594 37.6146 13.3698 37.5469 13.3906 37.5156C13.4115 37.474 13.4688 37.4375 13.5625 37.4062C13.7083 37.3542 13.8542 37.3281 14 37.3281C14.0833 37.3281 14.1615 37.3333 14.2344 37.3438C14.4635 37.3958 14.5781 37.4844 14.5781 37.6094C14.5677 38.6615 14.4271 39.9792 14.1562 41.5625C13.8958 43.1458 13.6094 44.474 13.2969 45.5469C13.0156 46.401 12.599 46.974 12.0469 47.2656C11.4948 47.5573 10.9583 47.7031 10.4375 47.7031C10.25 47.7031 10.0573 47.6875 9.85938 47.6562C9.11979 47.5417 8.46354 47.2135 7.89062 46.6719ZM5.70312 38.0781L5.76562 37.8594C5.92188 37.4531 6.02083 37.1719 6.0625 37.0156C6.11458 36.849 6.14062 36.724 6.14062 36.6406C6.14062 36.6094 6.13542 36.5781 6.125 36.5469C6.09375 36.4635 6.03125 36.3646 5.9375 36.25C5.92708 36.2292 5.91146 36.2083 5.89062 36.1875C5.51562 35.7292 5.22396 35.5 5.01562 35.5H4.96875C4.75 35.5417 4.59375 35.7448 4.5 36.1094C4.40625 36.4635 4.33333 36.8646 4.28125 37.3125C4.27083 37.4167 4.25521 37.5156 4.23438 37.6094C4.17188 38.099 4.125 38.625 4.09375 39.1875C4.0625 39.7396 4.04688 40.1719 4.04688 40.4844C4.04688 40.651 4.05208 40.7969 4.0625 40.9219C4.08333 41.2135 4.13542 41.3594 4.21875 41.3594C4.25 41.3594 4.28646 41.3385 4.32812 41.2969C4.47396 41.151 4.63542 40.8698 4.8125 40.4531C5 40.026 5.17188 39.5938 5.32812 39.1562C5.48438 38.7083 5.59375 38.3854 5.65625 38.1875C5.67708 38.125 5.69271 38.0885 5.70312 38.0781ZM-1.46875 68.0312C-1.27083 67.7396 -1 67.4167 -0.65625 67.0625C-0.3125 66.6979 0.0260417 66.3802 0.359375 66.1094C0.494792 66.0052 0.609375 65.9167 0.703125 65.8438C0.796875 65.7604 0.84375 65.7135 0.84375 65.7031C0.84375 65.6615 0.5625 65.0312 0 63.8125C-0.40625 63.0104 -0.671875 62.3542 -0.796875 61.8438C-0.921875 61.3229 -0.984375 60.9271 -0.984375 60.6562C-0.984375 60.1042 -0.84375 59.526 -0.5625 58.9219C-0.0208333 57.9635 0.947917 57.4271 2.34375 57.3125H2.57812C3.46354 57.3125 4.02083 57.4844 4.25 57.8281C4.29167 57.9115 4.3125 57.9688 4.3125 58C4.3125 58.0417 4.29167 58.0938 4.25 58.1562C4.21875 58.1979 4.1875 58.2344 4.15625 58.2656C4.125 58.2969 4.09375 58.3177 4.0625 58.3281C3.91667 58.4115 3.79167 58.625 3.6875 58.9688C3.59375 59.3125 3.54688 59.6354 3.54688 59.9375V60.125C3.59896 60.6875 3.66146 61.151 3.73438 61.5156C3.80729 61.8698 3.92188 62.2656 4.07812 62.7031C4.17188 62.974 4.25521 63.2031 4.32812 63.3906C4.40104 63.5677 4.44271 63.6562 4.45312 63.6562C4.46354 63.6562 4.52604 63.6146 4.64062 63.5312C4.76562 63.4479 4.90625 63.3438 5.0625 63.2188C5.8125 62.6875 6.33333 62.1198 6.625 61.5156C6.8125 61.151 6.96875 60.9115 7.09375 60.7969C7.22917 60.6823 7.42708 60.625 7.6875 60.625H7.82812C8.26562 60.625 8.48438 60.7083 8.48438 60.875V60.8906C8.47396 61.0885 8.34375 61.3698 8.09375 61.7344C8.07292 61.7656 8.05729 61.7917 8.04688 61.8125C7.95312 61.9583 7.84375 62.1198 7.71875 62.2969C7.60417 62.4635 7.5 62.599 7.40625 62.7031C7.20833 62.9427 6.90104 63.2292 6.48438 63.5625C6.07812 63.8958 5.69271 64.1771 5.32812 64.4062C5.19271 64.5 5.07812 64.5729 4.98438 64.625L4.82812 64.7188V64.7344C4.82812 64.7552 4.84896 64.8333 4.89062 64.9688C4.93229 65.125 4.98958 65.3177 5.0625 65.5469C5.29167 66.2656 5.42708 66.8177 5.46875 67.2031C5.52083 67.5885 5.54688 67.9219 5.54688 68.2031C5.54688 68.4427 5.53646 68.6927 5.51562 68.9531C5.46354 69.5365 5.35938 70.026 5.20312 70.4219C5.05729 70.8177 4.83854 71.1979 4.54688 71.5625C4.05729 72.1562 3.46875 72.6042 2.78125 72.9062C2.09375 73.2083 1.41667 73.3594 0.75 73.3594H0.546875C-0.494792 73.276 -1.23438 72.9688 -1.67188 72.4375C-2.11979 71.9167 -2.34375 71.3125 -2.34375 70.625V70.3906C-2.28125 69.599 -1.98958 68.8125 -1.46875 68.0312ZM1.35938 67.4844C1.34896 67.474 1.33854 67.4688 1.32812 67.4688C1.27604 67.4688 1.17708 67.5521 1.03125 67.7188C0.864583 67.9167 0.6875 68.1667 0.5 68.4688C0.3125 68.7708 0.166667 69.0469 0.0625 69.2969C-0.0833333 69.6615 -0.15625 70.0833 -0.15625 70.5625C-0.15625 71.0417 0.00520833 71.4167 0.328125 71.6875C0.401042 71.75 0.479167 71.7812 0.5625 71.7812C0.739583 71.7812 0.921875 71.6302 1.10938 71.3281C1.36979 70.8073 1.51042 70.3229 1.53125 69.875C1.5625 69.4271 1.57812 69.1354 1.57812 69C1.57812 68.4271 1.50521 67.9219 1.35938 67.4844ZM8.07812 93.25C7.91146 92.5938 7.82812 91.6615 7.82812 90.4531C7.82812 89.7344 7.85938 88.9167 7.92188 88C8.05729 85.7812 8.125 84.3542 8.125 83.7188V83.0469L7.92188 83.2812C7.73438 83.5 7.52083 83.7969 7.28125 84.1719C7.05208 84.5365 6.84375 84.9167 6.65625 85.3125C6.47917 85.6667 6.28125 86.1042 6.0625 86.625C5.85417 87.1354 5.55729 87.875 5.17188 88.8438C4.88021 89.5833 4.64583 90.1458 4.46875 90.5312C4.29167 90.9167 4.13542 91.1927 4 91.3594C3.875 91.5156 3.73438 91.6198 3.57812 91.6719C3.38021 91.7448 3.1875 91.7865 3 91.7969C2.8125 91.7969 2.68229 91.7969 2.60938 91.7969C2.39062 91.7969 2.19271 91.776 2.01562 91.7344C1.35938 91.5469 0.822917 91.1562 0.40625 90.5625C-0.0104167 89.9688 -0.3125 89.3021 -0.5 88.5625C-0.6875 87.8125 -0.78125 87.1354 -0.78125 86.5312C-0.78125 85.8438 -0.75 85.2917 -0.6875 84.875C-0.635417 84.4479 -0.53125 84.0312 -0.375 83.625C-0.125 82.9479 0.46875 82.5781 1.40625 82.5156H1.6875C2.70833 82.5156 3.38542 82.8385 3.71875 83.4844C3.76042 83.5573 3.79167 83.6406 3.8125 83.7344C3.83333 83.8177 3.84375 83.9635 3.84375 84.1719C3.84375 84.3802 3.84375 84.6927 3.84375 85.1094C3.84375 85.526 3.83333 85.9583 3.8125 86.4062C3.79167 86.8542 3.76562 87.25 3.73438 87.5938C3.70312 87.9062 3.68229 88.1823 3.67188 88.4219C3.66146 88.651 3.65625 88.7917 3.65625 88.8438C3.65625 88.8646 3.66146 88.875 3.67188 88.875C3.70312 88.875 3.79167 88.7135 3.9375 88.3906C5.29167 85.3906 6.45312 83.3646 7.42188 82.3125C7.89062 81.8542 8.39062 81.625 8.92188 81.625C9.07812 81.625 9.23958 81.6458 9.40625 81.6875C10.1042 81.875 10.651 82.3281 11.0469 83.0469C11.4115 83.8073 11.6198 84.5781 11.6719 85.3594C11.724 86.1302 11.75 86.8177 11.75 87.4219C11.75 87.724 11.7448 88.0208 11.7344 88.3125C11.724 88.6875 11.7188 89.0417 11.7188 89.375C11.7188 91.0104 11.7292 92.2083 11.75 92.9688C11.7708 93.9792 11.8698 94.4844 12.0469 94.4844H12.0781C12.276 94.4115 12.6042 93.8802 13.0625 92.8906C13.5 91.9323 13.8646 90.9167 14.1562 89.8438C14.4583 88.7604 14.7135 87.7396 14.9219 86.7812C15.0052 86.3854 15.0885 86.0208 15.1719 85.6875C15.2552 85.5521 15.3698 85.474 15.5156 85.4531C15.6615 85.4219 15.7708 85.4062 15.8438 85.4062C15.9688 85.4062 16.0885 85.4271 16.2031 85.4688C16.3906 85.5312 16.4844 85.6354 16.4844 85.7812C16.4844 85.9896 16.3698 86.5833 16.1406 87.5625C15.9219 88.5312 15.6823 89.5208 15.4219 90.5312C15.1615 91.5312 14.9531 92.25 14.7969 92.6875C14.599 93.2604 14.3594 93.8177 14.0781 94.3594C13.8073 94.901 13.4531 95.3438 13.0156 95.6875C12.5781 96.0417 12.0208 96.224 11.3438 96.2344C10.5521 96.2135 9.85938 95.9219 9.26562 95.3594C8.68229 94.8073 8.28646 94.1042 8.07812 93.25ZM7.89062 118.672C6.92188 117.734 6.3125 116.297 6.0625 114.359L6 113.797L5.70312 114.359C5.35938 115.005 4.95833 115.411 4.5 115.578C4.04167 115.734 3.63542 115.812 3.28125 115.812C3.04167 115.812 2.79688 115.786 2.54688 115.734C1.92188 115.589 1.35938 115.307 0.859375 114.891C-0.046875 114.068 -0.546875 113.266 -0.640625 112.484C-0.734375 111.703 -0.78125 111.177 -0.78125 110.906C-0.78125 109.927 -0.5625 108.99 -0.125 108.094C0.447917 106.938 1.36979 106.146 2.64062 105.719C3.20312 105.552 3.77083 105.469 4.34375 105.469C4.5 105.469 4.66146 105.474 4.82812 105.484C5.55729 105.557 6.15625 105.812 6.625 106.25C6.72917 106.354 6.80208 106.406 6.84375 106.406C6.85417 106.406 6.86458 106.401 6.875 106.391C6.92708 106.307 7.05208 106.24 7.25 106.188C7.44792 106.125 7.67188 106.094 7.92188 106.094C8.45312 106.094 8.84375 106.234 9.09375 106.516C9.35417 106.797 9.54167 107.292 9.65625 108C9.79167 108.802 9.90104 109.917 9.98438 111.344C10.1094 113.479 10.3021 115.161 10.5625 116.391C10.7812 117.328 10.9844 117.797 11.1719 117.797C11.1927 117.797 11.2135 117.792 11.2344 117.781C11.4323 117.646 11.6823 117.167 11.9844 116.344C12.3385 115.427 12.6562 114.302 12.9375 112.969C13.2188 111.635 13.3594 110.552 13.3594 109.719C13.3594 109.615 13.3698 109.547 13.3906 109.516C13.4115 109.474 13.4688 109.438 13.5625 109.406C13.7083 109.354 13.8542 109.328 14 109.328C14.0833 109.328 14.1615 109.333 14.2344 109.344C14.4635 109.396 14.5781 109.484 14.5781 109.609C14.5677 110.661 14.4271 111.979 14.1562 113.562C13.8958 115.146 13.6094 116.474 13.2969 117.547C13.0156 118.401 12.599 118.974 12.0469 119.266C11.4948 119.557 10.9583 119.703 10.4375 119.703C10.25 119.703 10.0573 119.688 9.85938 119.656C9.11979 119.542 8.46354 119.214 7.89062 118.672ZM5.70312 110.078L5.76562 109.859C5.92188 109.453 6.02083 109.172 6.0625 109.016C6.11458 108.849 6.14062 108.724 6.14062 108.641C6.14062 108.609 6.13542 108.578 6.125 108.547C6.09375 108.464 6.03125 108.365 5.9375 108.25C5.92708 108.229 5.91146 108.208 5.89062 108.188C5.51562 107.729 5.22396 107.5 5.01562 107.5H4.96875C4.75 107.542 4.59375 107.745 4.5 108.109C4.40625 108.464 4.33333 108.865 4.28125 109.312C4.27083 109.417 4.25521 109.516 4.23438 109.609C4.17188 110.099 4.125 110.625 4.09375 111.188C4.0625 111.74 4.04688 112.172 4.04688 112.484C4.04688 112.651 4.05208 112.797 4.0625 112.922C4.08333 113.214 4.13542 113.359 4.21875 113.359C4.25 113.359 4.28646 113.339 4.32812 113.297C4.47396 113.151 4.63542 112.87 4.8125 112.453C5 112.026 5.17188 111.594 5.32812 111.156C5.48438 110.708 5.59375 110.385 5.65625 110.188C5.67708 110.125 5.69271 110.089 5.70312 110.078ZM0.65625 140.125C0.114583 139.115 -0.265625 137.615 -0.484375 135.625C-0.546875 134.99 -0.578125 134.062 -0.578125 132.844C-0.578125 131.635 -0.546875 130.521 -0.484375 129.5L-0.4375 128.906H-0.84375C-1.20833 128.896 -1.54167 128.849 -1.84375 128.766C-2.15625 128.672 -2.35938 128.562 -2.45312 128.438C-2.48438 128.396 -2.5 128.349 -2.5 128.297C-2.5 128.255 -2.48958 128.214 -2.46875 128.172C-2.42708 128.078 -2.34375 127.995 -2.21875 127.922C-1.92708 127.755 -1.46354 127.672 -0.828125 127.672H-0.28125L-0.25 127.516C-0.0520833 126.609 0.15625 125.932 0.375 125.484C0.59375 125.026 0.869792 124.719 1.20312 124.562C1.49479 124.427 1.81771 124.359 2.17188 124.359H2.375C2.8125 124.391 3.16146 124.505 3.42188 124.703C3.59896 124.859 3.72396 125.115 3.79688 125.469C3.88021 125.823 3.92188 126.344 3.92188 127.031V127.844L4.42188 127.875C5.28646 127.948 5.89062 128.021 6.23438 128.094C6.57812 128.156 6.77604 128.25 6.82812 128.375C6.84896 128.417 6.85938 128.458 6.85938 128.5C6.85938 128.604 6.76562 128.703 6.57812 128.797C6.50521 128.839 6.42708 128.87 6.34375 128.891C6.26042 128.911 6.125 128.927 5.9375 128.938C5.75 128.938 5.46875 128.943 5.09375 128.953C4.85417 128.953 4.65625 128.958 4.5 128.969C4.35417 128.969 4.23438 128.974 4.14062 128.984C4.05729 128.984 3.99479 128.99 3.95312 129C3.91146 129.01 3.88021 129.026 3.85938 129.047C3.84896 129.057 3.83854 129.073 3.82812 129.094C3.81771 129.188 3.80208 129.536 3.78125 130.141C3.77083 130.745 3.75521 131.453 3.73438 132.266C3.71354 133.078 3.70312 133.75 3.70312 134.281C3.70312 134.802 3.70312 135.188 3.70312 135.438V136.016C3.76562 137.953 4.03125 139.438 4.5 140.469C4.83333 141.198 5.16146 141.562 5.48438 141.562C5.51562 141.562 5.54688 141.557 5.57812 141.547C5.92188 141.484 6.23958 141.156 6.53125 140.562C6.83333 139.969 7.09896 139.281 7.32812 138.5C7.56771 137.719 7.75521 137.005 7.89062 136.359C8.03646 135.703 8.125 135.281 8.15625 135.094C8.22917 134.604 8.30208 134.26 8.375 134.062C8.44792 133.854 8.53646 133.724 8.64062 133.672C8.71354 133.641 8.82812 133.625 8.98438 133.625C9.15104 133.615 9.30729 133.62 9.45312 133.641C9.60938 133.651 9.71354 133.677 9.76562 133.719C9.83854 133.771 9.875 133.927 9.875 134.188C9.875 134.438 9.84375 134.781 9.78125 135.219C9.65625 136.177 9.44271 137.234 9.14062 138.391C8.84896 139.547 8.39583 140.573 7.78125 141.469C7.16667 142.365 6.31771 142.901 5.23438 143.078C5.08854 143.099 4.94271 143.109 4.79688 143.109C4.07812 143.109 3.375 142.891 2.6875 142.453C1.86458 141.922 1.1875 141.146 0.65625 140.125Z" fill="black"/>
</mask>
<g mask="url(#mask1_108_368)">
<rect width="27" height="31" fill="url(#paint1_linear_108_368)"/>
</g>
<defs>
<linearGradient id="paint0_linear_108_368" x1="-7.44824" y1="0" x2="35.3163" y2="2.67666" gradientUnits="userSpaceOnUse">
<stop stop-color="#8E54E9"/>
<stop offset="1" stop-color="#E29587"/>
</linearGradient>
<linearGradient id="paint1_linear_108_368" x1="0" y1="0" x2="28.3895" y2="1.32954" gradientUnits="userSpaceOnUse">
<stop stop-color="#8E54E9"/>
<stop offset="1" stop-color="#E29587"/>
</linearGradient>
</defs>
</svg>
