<svg width="141" height="35" viewBox="0 0 141 35" fill="none" xmlns="http://www.w3.org/2000/svg">
<mask id="mask0_246_506" style="mask-type:alpha" maskUnits="userSpaceOnUse" x="82" y="8" width="59" height="27">
<path d="M93.5938 30.9062C93.2083 30.8125 92.9531 30.625 92.8281 30.3438C92.724 30.0938 92.6146 29.6875 92.5 29.125C92.3958 28.5521 92.3229 28.0104 92.2812 27.5C92.2604 27.1667 92.2292 26.7292 92.1875 26.1875C92.1562 25.6458 92.1198 25.0938 92.0781 24.5312C92.0365 23.9583 91.9948 23.474 91.9531 23.0781C91.9219 22.6823 91.9062 22.4688 91.9062 22.4375C91.8854 22.4167 91.8177 22.4062 91.7031 22.4062C91.5365 22.4062 91.2552 22.4271 90.8594 22.4688C90.2031 22.5208 89.4271 22.5938 88.5312 22.6875C87.7292 22.7604 86.9635 22.8333 86.2344 22.9062C85.5052 22.9688 84.974 23 84.6406 23L84.6094 23.2188C84.5677 23.5312 84.5208 23.9531 84.4688 24.4844C84.4167 25.0052 84.375 25.5365 84.3438 26.0781C84.3125 26.526 84.2812 26.849 84.25 27.0469C84.2292 27.2344 84.1771 27.349 84.0938 27.3906C84.0104 27.4323 83.8698 27.4531 83.6719 27.4531H83.625C83.1875 27.4531 82.9271 27.2917 82.8438 26.9688C82.8125 26.8333 82.7917 26.6302 82.7812 26.3594C82.7812 26.0781 82.7812 25.8385 82.7812 25.6406V25.0156C82.7917 24.5885 82.8177 24.2135 82.8594 23.8906C83.1719 20.9323 83.901 18.0365 85.0469 15.2031C86.4948 11.7031 88.1302 9.56771 89.9531 8.79688C90.4427 8.61979 90.9271 8.53125 91.4062 8.53125C91.9375 8.53125 92.4583 8.64062 92.9688 8.85938C93.8646 9.28646 94.5625 9.94792 95.0625 10.8438C95.5625 11.7396 95.9219 12.6615 96.1406 13.6094C96.4219 14.5156 96.5625 16.5365 96.5625 19.6719C96.5625 20.8594 96.5312 22.4219 96.4688 24.3594C96.4167 26.2969 96.2656 27.9271 96.0156 29.25C95.9219 29.7292 95.8281 30.0781 95.7344 30.2969C95.6406 30.5052 95.526 30.6562 95.3906 30.75C95.1823 30.875 94.9688 30.9479 94.75 30.9688C94.5417 30.9896 94.3958 31 94.3125 31C94.0729 31 93.8333 30.9688 93.5938 30.9062ZM90.75 21.1719L91.8438 21.1406L91.8281 20.9844C91.8281 20.9219 91.8177 20.651 91.7969 20.1719C91.7865 19.6823 91.776 19.0938 91.7656 18.4062C91.6615 14.9062 91.5781 12.901 91.5156 12.3906C91.4844 12.1719 91.4635 11.9375 91.4531 11.6875C91.4323 11.3021 91.3906 10.9479 91.3281 10.625C91.2656 10.3021 91.1771 10.0938 91.0625 10C90.9583 9.90625 90.8646 9.85938 90.7812 9.85938C90.6354 9.85938 90.4531 9.92708 90.2344 10.0625C89.9427 10.2604 89.6094 10.5521 89.2344 10.9375C88.8698 11.3125 88.5573 11.6771 88.2969 12.0312C86.7031 14.2917 85.5729 17.3594 84.9062 21.2344L84.875 21.4062H85.2812C86.4167 21.4062 87.5729 21.3594 88.75 21.2656L90.75 21.1719ZM114.047 31.375C112.943 31.0417 112.203 30.4375 111.828 29.5625C111.453 28.6771 111.266 27.7344 111.266 26.7344V26.5625C111.266 25.875 111.292 25.2656 111.344 24.7344C111.406 24.1927 111.536 23.3698 111.734 22.2656C111.807 21.8385 111.865 21.4688 111.906 21.1562C111.958 20.8438 111.984 20.6615 111.984 20.6094C111.974 20.5885 111.964 20.5781 111.953 20.5781C111.911 20.5781 111.823 20.6719 111.688 20.8594C111.51 21.1302 111.307 21.4844 111.078 21.9219C110.859 22.3594 110.667 22.7812 110.5 23.1875C110.292 23.75 110.089 24.3281 109.891 24.9219C109.703 25.5052 109.589 25.9115 109.547 26.1406C109.505 26.3802 109.453 26.5417 109.391 26.625C109.339 26.7083 109.245 26.7812 109.109 26.8438C108.911 26.9271 108.729 26.974 108.562 26.9844C108.406 26.9844 108.297 26.9844 108.234 26.9844C108.047 26.9844 107.865 26.9635 107.688 26.9219C107.167 26.8177 106.786 26.4844 106.547 25.9219C106.318 25.349 106.172 24.7448 106.109 24.1094C106.057 23.4635 106.031 22.9219 106.031 22.4844V22.2656C106.031 21.8594 106.031 21.5312 106.031 21.2812C106.031 21.0312 106.026 20.8438 106.016 20.7188C106.016 20.5938 106.01 20.5208 106 20.5C106 20.4792 105.995 20.4688 105.984 20.4688C105.974 20.4688 105.964 20.4792 105.953 20.5C105.734 20.9375 105.349 22.0573 104.797 23.8594C104.63 24.3802 104.464 24.8906 104.297 25.3906C104.13 25.8802 104.005 26.2448 103.922 26.4844C103.724 27.0156 103.526 27.3646 103.328 27.5312C103.13 27.6875 102.802 27.776 102.344 27.7969C102.25 27.8073 102.156 27.8125 102.062 27.8125C101.01 27.8125 100.214 27.276 99.6719 26.2031C99.3906 25.651 99.1927 25.1094 99.0781 24.5781C98.9635 24.0469 98.9062 23.3906 98.9062 22.6094V22.4531C98.9062 21.3802 99.0156 20.6198 99.2344 20.1719C99.4531 19.7031 99.8854 19.4062 100.531 19.2812C100.771 19.2292 101.073 19.2031 101.438 19.2031C101.792 19.2031 102.089 19.2292 102.328 19.2812C102.536 19.3229 102.724 19.3958 102.891 19.5C103.068 19.5938 103.198 19.6927 103.281 19.7969C103.302 19.8281 103.323 19.875 103.344 19.9375C103.365 19.9896 103.38 20.0781 103.391 20.2031C103.401 20.3281 103.406 20.5208 103.406 20.7812C103.417 21.0312 103.422 21.375 103.422 21.8125L103.453 23.6719L103.953 22.4062C104.464 21.0729 104.875 20.0469 105.188 19.3281C105.51 18.6094 105.776 18.1094 105.984 17.8281C106.193 17.5469 106.401 17.3854 106.609 17.3438C106.766 17.3021 106.969 17.2812 107.219 17.2812H107.375C107.688 17.2812 107.943 17.3073 108.141 17.3594C109.151 17.6406 109.74 18.6562 109.906 20.4062C109.927 20.5938 109.948 20.75 109.969 20.875C109.99 21 110.005 21.0625 110.016 21.0625C110.026 21.0625 110.057 21.0208 110.109 20.9375C110.172 20.8438 110.24 20.7344 110.312 20.6094C110.604 20.1302 110.87 19.7812 111.109 19.5625C111.349 19.3333 111.63 19.1823 111.953 19.1094C112.172 19.0573 112.385 19.0312 112.594 19.0312C112.969 19.0312 113.328 19.1146 113.672 19.2812C114.161 19.5521 114.542 20.1302 114.812 21.0156C114.906 21.3073 114.974 21.6094 115.016 21.9219C115.057 22.2344 115.083 22.6146 115.094 23.0625C115.104 23.5 115.109 23.9323 115.109 24.3594C115.109 24.7865 115.104 25.2812 115.094 25.8438V28.1875C115.104 28.7396 115.12 29.1458 115.141 29.4062C115.172 29.6667 115.214 29.875 115.266 30.0312C115.286 30.0833 115.302 30.1302 115.312 30.1719C115.333 30.2031 115.354 30.2188 115.375 30.2188C115.688 30.1146 115.969 29.724 116.219 29.0469C116.479 28.3594 116.703 27.5521 116.891 26.625C117.089 25.6979 117.245 24.8229 117.359 24C117.484 23.1667 117.568 22.5573 117.609 22.1719L117.641 22C117.672 21.7188 117.698 21.5625 117.719 21.5312C117.771 21.4688 117.859 21.4219 117.984 21.3906C118.12 21.349 118.255 21.3281 118.391 21.3281H118.484C118.661 21.3281 118.812 21.3542 118.938 21.4062C119 21.4271 119.047 21.4531 119.078 21.4844C119.109 21.5052 119.125 21.5417 119.125 21.5938C119.135 21.6458 119.141 21.7292 119.141 21.8438C119.078 22.3542 119.016 22.8698 118.953 23.3906C118.818 24.651 118.646 25.8542 118.438 27C118.24 28.1354 117.938 29.099 117.531 29.8906C117.125 30.6823 116.552 31.1927 115.812 31.4219C115.625 31.4635 115.396 31.4844 115.125 31.4844H114.953C114.62 31.4844 114.318 31.4479 114.047 31.375ZM119.812 15.5156C119.292 15.3281 118.953 15.0625 118.797 14.7188C118.651 14.3646 118.578 14.0625 118.578 13.8125C118.578 13.625 118.609 13.4323 118.672 13.2344C118.828 12.7969 119.172 12.4844 119.703 12.2969C119.974 12.2344 120.229 12.2031 120.469 12.2031C120.823 12.2031 121.141 12.2708 121.422 12.4062C121.901 12.625 122.193 12.8906 122.297 13.2031C122.411 13.5156 122.469 13.7656 122.469 13.9531C122.469 14.276 122.375 14.6146 122.188 14.9688C121.948 15.3333 121.667 15.5365 121.344 15.5781C121.031 15.6198 120.797 15.6406 120.641 15.6406C120.349 15.6406 120.073 15.599 119.812 15.5156ZM119.031 28.7188C118.458 27.9062 118.042 26.7292 117.781 25.1875C117.667 24.5 117.609 23.8698 117.609 23.2969C117.599 22.724 117.594 22.3958 117.594 22.3125C117.594 21.3542 117.651 20.5729 117.766 19.9688C117.87 19.4479 118.026 19.0573 118.234 18.7969C118.443 18.5365 118.745 18.349 119.141 18.2344C119.453 18.1406 119.818 18.0938 120.234 18.0938C120.651 18.0938 121.016 18.1406 121.328 18.2344C121.87 18.4115 122.203 18.7083 122.328 19.125C122.349 19.1979 122.359 19.474 122.359 19.9531C122.37 20.4323 122.37 21.2031 122.359 22.2656C122.349 22.9219 122.344 23.5 122.344 24C122.344 24.6771 122.354 25.2135 122.375 25.6094C122.417 26.3073 122.505 26.9427 122.641 27.5156C122.891 28.5781 123.203 29.1094 123.578 29.1094H123.609C123.984 29.0885 124.417 28.651 124.906 27.7969C125.396 26.9844 125.854 25.6458 126.281 23.7812C126.312 23.6562 126.344 23.5365 126.375 23.4219C126.458 23.0573 126.526 22.7552 126.578 22.5156C126.641 22.276 126.688 22.0885 126.719 21.9531C126.76 21.8177 126.792 21.7188 126.812 21.6562C126.844 21.5938 126.87 21.5521 126.891 21.5312C126.922 21.5104 126.953 21.4948 126.984 21.4844H127.031C127.167 21.4323 127.328 21.4062 127.516 21.4062C127.714 21.4062 127.88 21.4323 128.016 21.4844C128.089 21.5156 128.141 21.5469 128.172 21.5781C128.203 21.6094 128.219 21.6615 128.219 21.7344C128.219 21.901 128.151 22.2812 128.016 22.875C127.88 23.4583 127.714 24.1094 127.516 24.8281C127.328 25.5365 127.141 26.1875 126.953 26.7812C126.63 27.8854 126.214 28.7812 125.703 29.4688C125.193 30.1562 124.396 30.5521 123.312 30.6562C123.188 30.6667 123.057 30.6719 122.922 30.6719C122.245 30.6719 121.583 30.5312 120.938 30.25C120.167 29.9062 119.531 29.3958 119.031 28.7188ZM129.594 30.6406C129.552 30.3177 129.531 29.9792 129.531 29.625C129.531 28.9479 129.615 28.2083 129.781 27.4062C129.906 26.7917 130.089 26.1042 130.328 25.3438C130.578 24.5729 130.839 23.849 131.109 23.1719C131.109 23.1615 131.115 23.151 131.125 23.1406C131.167 23.0469 131.203 22.9635 131.234 22.8906L131.266 22.7969H131.031C130.875 22.7969 130.688 22.8021 130.469 22.8125H130.266C129.464 22.8125 128.734 22.6979 128.078 22.4688C127.297 22.1979 126.682 21.776 126.234 21.2031C125.786 20.6198 125.562 19.9115 125.562 19.0781C125.562 18.401 125.719 17.7604 126.031 17.1562C126.333 16.5521 126.745 16.0573 127.266 15.6719C127.828 15.2552 128.464 15.0469 129.172 15.0469C129.401 15.0469 129.635 15.0677 129.875 15.1094C130.333 15.2031 130.708 15.4271 131 15.7812C131.302 16.1354 131.458 16.6354 131.469 17.2812C131.469 17.8854 131.349 18.4479 131.109 18.9688C130.88 19.4792 130.438 20.1302 129.781 20.9219L129.609 21.125C129.922 21.4688 130.156 21.6667 130.312 21.7188C130.479 21.7708 130.615 21.7969 130.719 21.7969C130.938 21.7969 131.214 21.7344 131.547 21.6094C131.964 21.4323 132.318 21.2604 132.609 21.0938L132.734 21.0312C133.036 20.8646 133.271 20.7656 133.438 20.7344C133.604 20.6927 133.745 20.6719 133.859 20.6719C134.026 20.6719 134.208 20.6927 134.406 20.7344C135.073 20.8281 135.479 21.0365 135.625 21.3594C135.708 21.5052 135.75 21.6771 135.75 21.875C135.75 22.0729 135.698 22.375 135.594 22.7812C135.49 23.1771 135.323 23.7552 135.094 24.5156C134.24 27.2448 133.74 29.0885 133.594 30.0469C133.479 30.724 133.422 31.2656 133.422 31.6719C133.422 32.0885 133.479 32.3698 133.594 32.5156C133.646 32.5781 133.703 32.6094 133.766 32.6094C134.047 32.6094 134.5 32.1458 135.125 31.2188C135.875 30.0729 136.599 28.6719 137.297 27.0156C138.005 25.349 138.552 23.8385 138.938 22.4844C138.969 22.4427 139.005 22.4115 139.047 22.3906C139.099 22.3698 139.161 22.3594 139.234 22.3594C139.318 22.349 139.438 22.3438 139.594 22.3438C139.885 22.3438 140.083 22.3698 140.188 22.4219C140.302 22.474 140.359 22.5729 140.359 22.7188C140.359 23.125 140.104 24 139.594 25.3438C139.083 26.6771 138.531 27.9948 137.938 29.2969C137.354 30.599 136.911 31.4948 136.609 31.9844C136.089 32.7656 135.516 33.3229 134.891 33.6562C134.266 34 133.661 34.1719 133.078 34.1719H132.875C132.083 34.1198 131.385 33.7917 130.781 33.1875C130.177 32.5938 129.781 31.7448 129.594 30.6406ZM129.688 19.0938C130 18.4792 130.156 17.8854 130.156 17.3125C130.156 17.1042 130.146 16.9531 130.125 16.8594C130.104 16.7552 130.062 16.6406 130 16.5156C129.948 16.4323 129.896 16.3594 129.844 16.2969C129.802 16.2344 129.771 16.2031 129.75 16.2031C129.708 16.2031 129.651 16.2656 129.578 16.3906C129.505 16.5156 129.427 16.6667 129.344 16.8438C129.271 17.0208 129.208 17.1979 129.156 17.375C129.094 17.6458 129.052 17.9271 129.031 18.2188C129.021 18.5104 129.016 18.7188 129.016 18.8438C129.016 19.1146 129.031 19.3594 129.062 19.5781L129.125 19.9375L129.297 19.7344C129.339 19.6719 129.396 19.5833 129.469 19.4688C129.552 19.3438 129.625 19.2188 129.688 19.0938Z" fill="black"/>
</mask>
<g mask="url(#mask0_246_506)">
<rect x="-0.758301" width="143.793" height="35" fill="url(#paint0_linear_246_506)"/>
</g>
<mask id="mask1_246_506" style="mask-type:alpha" maskUnits="userSpaceOnUse" x="0" y="0" width="77" height="26">
<path d="M10.7656 22.9531C10.4531 22.8385 10.2188 22.5417 10.0625 22.0625C9.91667 21.5833 9.81771 21.0521 9.76562 20.4688C9.72396 19.875 9.69792 19.3542 9.6875 18.9062C9.6875 18.7292 9.68229 18.5781 9.67188 18.4531L9.625 17.6875L8.39062 17.7188C7.86979 17.7396 7.33333 17.7708 6.78125 17.8125C6.23958 17.8438 5.76042 17.8802 5.34375 17.9219C4.9375 17.9531 4.69271 17.9844 4.60938 18.0156C4.51562 18.0469 4.46875 18.0885 4.46875 18.1406C4.46875 18.151 4.47396 18.1667 4.48438 18.1875C4.49479 18.2188 4.51042 18.3333 4.53125 18.5312C4.55208 18.7188 4.57292 18.9427 4.59375 19.2031C4.61458 19.5052 4.625 19.7969 4.625 20.0781C4.625 20.2969 4.61979 20.5156 4.60938 20.7344C4.57812 21.224 4.52083 21.5625 4.4375 21.75C4.29167 22.0312 3.90104 22.1719 3.26562 22.1719C2.68229 22.1719 2.30729 22.0365 2.14062 21.7656C1.80729 21.2344 1.56771 20.4427 1.42188 19.3906C1.27604 18.3385 1.18229 17.4635 1.14062 16.7656C1.13021 16.6719 1.125 16.5885 1.125 16.5156C0.96875 14.7135 0.869792 13.401 0.828125 12.5781C0.796875 11.7552 0.78125 10.9531 0.78125 10.1719C0.78125 9.70312 0.786458 9.20312 0.796875 8.67188C0.807292 7.29688 0.828125 6.27604 0.859375 5.60938C0.901042 4.94271 0.973958 4.24479 1.07812 3.51562C1.21354 2.51562 1.39062 1.80729 1.60938 1.39062C1.69271 1.22396 1.78125 1.09896 1.875 1.01562C1.96875 0.921875 2.10938 0.833333 2.29688 0.75C2.52604 0.65625 2.82292 0.609375 3.1875 0.609375C3.55208 0.598958 3.85417 0.635417 4.09375 0.71875C4.32292 0.802083 4.49479 0.927083 4.60938 1.09375C4.72396 1.25 4.78125 1.4375 4.78125 1.65625C4.79167 1.875 4.79688 2.02083 4.79688 2.09375C4.79688 2.45833 4.77604 2.94271 4.73438 3.54688C4.58854 5.85938 4.47917 7.98958 4.40625 9.9375C4.33333 11.875 4.29688 13.3229 4.29688 14.2812V14.9219C4.30729 15.349 4.31771 15.7188 4.32812 16.0312C4.34896 16.3333 4.36458 16.5052 4.375 16.5469C4.38542 16.5677 4.40104 16.5885 4.42188 16.6094C4.44271 16.6198 4.47917 16.6302 4.53125 16.6406C4.58333 16.6406 4.66667 16.6458 4.78125 16.6562C4.89583 16.6562 5.04688 16.6615 5.23438 16.6719C5.43229 16.6719 5.67188 16.6719 5.95312 16.6719C6.24479 16.6719 6.59896 16.6719 7.01562 16.6719H9.59375L9.5625 16.2656C9.5 15.5573 9.45833 14.5573 9.4375 13.2656C9.42708 11.9635 9.42188 10.8021 9.42188 9.78125V8.25C9.43229 6.73958 9.46354 5.69271 9.51562 5.10938C9.55729 4.68229 9.59896 4.33854 9.64062 4.07812C9.77604 3.52604 10.0052 3.1875 10.3281 3.0625C10.651 2.92708 10.9323 2.85938 11.1719 2.85938C11.3594 2.85938 11.5417 2.88542 11.7188 2.9375C12.1458 3.0625 12.4427 3.27604 12.6094 3.57812C12.7031 3.76562 12.7708 3.98438 12.8125 4.23438C12.8646 4.48438 12.8958 4.88542 12.9062 5.4375C12.9167 5.97917 12.9219 6.78646 12.9219 7.85938C12.9219 8.71354 12.9115 9.625 12.8906 10.5938C12.8802 11.5625 12.8594 12.3594 12.8281 12.9844C12.8073 13.599 12.7917 14.3958 12.7812 15.375C12.7708 16.3438 12.7656 17.2656 12.7656 18.1406C12.7656 19.0677 12.7604 19.7604 12.75 20.2188C12.75 20.6771 12.7396 21.0104 12.7188 21.2188C12.6979 21.4271 12.6667 21.625 12.625 21.8125C12.5521 22.1771 12.4688 22.4427 12.375 22.6094C12.2917 22.7656 12.1719 22.8698 12.0156 22.9219C11.9323 22.9531 11.8281 22.974 11.7031 22.9844C11.5781 22.9844 11.474 22.9844 11.3906 22.9844H11.1562C10.9896 22.9844 10.8594 22.974 10.7656 22.9531ZM23.9531 22.6719C22.9844 21.7344 22.375 20.2969 22.125 18.3594L22.0625 17.7969L21.7656 18.3594C21.4219 19.0052 21.0208 19.4115 20.5625 19.5781C20.1042 19.7344 19.6979 19.8125 19.3438 19.8125C19.1042 19.8125 18.8594 19.7865 18.6094 19.7344C17.9844 19.5885 17.4219 19.3073 16.9219 18.8906C16.0156 18.0677 15.5156 17.2656 15.4219 16.4844C15.3281 15.7031 15.2812 15.1771 15.2812 14.9062C15.2812 13.9271 15.5 12.9896 15.9375 12.0938C16.5104 10.9375 17.4323 10.1458 18.7031 9.71875C19.2656 9.55208 19.8333 9.46875 20.4062 9.46875C20.5625 9.46875 20.724 9.47396 20.8906 9.48438C21.6198 9.55729 22.2188 9.8125 22.6875 10.25C22.7917 10.3542 22.8646 10.4062 22.9062 10.4062C22.9167 10.4062 22.9271 10.401 22.9375 10.3906C22.9896 10.3073 23.1146 10.2396 23.3125 10.1875C23.5104 10.125 23.7344 10.0938 23.9844 10.0938C24.5156 10.0938 24.9062 10.2344 25.1562 10.5156C25.4167 10.7969 25.6042 11.2917 25.7188 12C25.8542 12.8021 25.9635 13.9167 26.0469 15.3438C26.1719 17.4792 26.3646 19.1615 26.625 20.3906C26.8438 21.3281 27.0469 21.7969 27.2344 21.7969C27.2552 21.7969 27.276 21.7917 27.2969 21.7812C27.4948 21.6458 27.7448 21.1667 28.0469 20.3438C28.401 19.4271 28.7188 18.3021 29 16.9688C29.2812 15.6354 29.4219 14.5521 29.4219 13.7188C29.4219 13.6146 29.4323 13.5469 29.4531 13.5156C29.474 13.474 29.5312 13.4375 29.625 13.4062C29.7708 13.3542 29.9167 13.3281 30.0625 13.3281C30.1458 13.3281 30.224 13.3333 30.2969 13.3438C30.526 13.3958 30.6406 13.4844 30.6406 13.6094C30.6302 14.6615 30.4896 15.9792 30.2188 17.5625C29.9583 19.1458 29.6719 20.474 29.3594 21.5469C29.0781 22.401 28.6615 22.974 28.1094 23.2656C27.5573 23.5573 27.0208 23.7031 26.5 23.7031C26.3125 23.7031 26.1198 23.6875 25.9219 23.6562C25.1823 23.5417 24.526 23.2135 23.9531 22.6719ZM21.7656 14.0781L21.8281 13.8594C21.9844 13.4531 22.0833 13.1719 22.125 13.0156C22.1771 12.849 22.2031 12.724 22.2031 12.6406C22.2031 12.6094 22.1979 12.5781 22.1875 12.5469C22.1562 12.4635 22.0938 12.3646 22 12.25C21.9896 12.2292 21.974 12.2083 21.9531 12.1875C21.5781 11.7292 21.2865 11.5 21.0781 11.5H21.0312C20.8125 11.5417 20.6562 11.7448 20.5625 12.1094C20.4688 12.4635 20.3958 12.8646 20.3438 13.3125C20.3333 13.4167 20.3177 13.5156 20.2969 13.6094C20.2344 14.099 20.1875 14.625 20.1562 15.1875C20.125 15.7396 20.1094 16.1719 20.1094 16.4844C20.1094 16.651 20.1146 16.7969 20.125 16.9219C20.1458 17.2135 20.1979 17.3594 20.2812 17.3594C20.3125 17.3594 20.349 17.3385 20.3906 17.2969C20.5365 17.151 20.6979 16.8698 20.875 16.4531C21.0625 16.026 21.2344 15.5938 21.3906 15.1562C21.5469 14.7083 21.6562 14.3854 21.7188 14.1875C21.7396 14.125 21.7552 14.0885 21.7656 14.0781ZM28.4062 20.0312C28.6042 19.7396 28.875 19.4167 29.2188 19.0625C29.5625 18.6979 29.901 18.3802 30.2344 18.1094C30.3698 18.0052 30.4844 17.9167 30.5781 17.8438C30.6719 17.7604 30.7188 17.7135 30.7188 17.7031C30.7188 17.6615 30.4375 17.0312 29.875 15.8125C29.4688 15.0104 29.2031 14.3542 29.0781 13.8438C28.9531 13.3229 28.8906 12.9271 28.8906 12.6562C28.8906 12.1042 29.0312 11.526 29.3125 10.9219C29.8542 9.96354 30.8229 9.42708 32.2188 9.3125H32.4531C33.3385 9.3125 33.8958 9.48438 34.125 9.82812C34.1667 9.91146 34.1875 9.96875 34.1875 10C34.1875 10.0417 34.1667 10.0938 34.125 10.1562C34.0938 10.1979 34.0625 10.2344 34.0312 10.2656C34 10.2969 33.9688 10.3177 33.9375 10.3281C33.7917 10.4115 33.6667 10.625 33.5625 10.9688C33.4688 11.3125 33.4219 11.6354 33.4219 11.9375V12.125C33.474 12.6875 33.5365 13.151 33.6094 13.5156C33.6823 13.8698 33.7969 14.2656 33.9531 14.7031C34.0469 14.974 34.1302 15.2031 34.2031 15.3906C34.276 15.5677 34.3177 15.6562 34.3281 15.6562C34.3385 15.6562 34.401 15.6146 34.5156 15.5312C34.6406 15.4479 34.7812 15.3438 34.9375 15.2188C35.6875 14.6875 36.2083 14.1198 36.5 13.5156C36.6875 13.151 36.8438 12.9115 36.9688 12.7969C37.1042 12.6823 37.3021 12.625 37.5625 12.625H37.7031C38.1406 12.625 38.3594 12.7083 38.3594 12.875V12.8906C38.349 13.0885 38.2188 13.3698 37.9688 13.7344C37.9479 13.7656 37.9323 13.7917 37.9219 13.8125C37.8281 13.9583 37.7188 14.1198 37.5938 14.2969C37.4792 14.4635 37.375 14.599 37.2812 14.7031C37.0833 14.9427 36.776 15.2292 36.3594 15.5625C35.9531 15.8958 35.5677 16.1771 35.2031 16.4062C35.0677 16.5 34.9531 16.5729 34.8594 16.625L34.7031 16.7188V16.7344C34.7031 16.7552 34.724 16.8333 34.7656 16.9688C34.8073 17.125 34.8646 17.3177 34.9375 17.5469C35.1667 18.2656 35.3021 18.8177 35.3438 19.2031C35.3958 19.5885 35.4219 19.9219 35.4219 20.2031C35.4219 20.4427 35.4115 20.6927 35.3906 20.9531C35.3385 21.5365 35.2344 22.026 35.0781 22.4219C34.9323 22.8177 34.7135 23.1979 34.4219 23.5625C33.9323 24.1562 33.3438 24.6042 32.6562 24.9062C31.9688 25.2083 31.2917 25.3594 30.625 25.3594H30.4219C29.3802 25.276 28.6406 24.9688 28.2031 24.4375C27.7552 23.9167 27.5312 23.3125 27.5312 22.625V22.3906C27.5938 21.599 27.8854 20.8125 28.4062 20.0312ZM31.2344 19.4844C31.224 19.474 31.2135 19.4688 31.2031 19.4688C31.151 19.4688 31.0521 19.5521 30.9062 19.7188C30.7396 19.9167 30.5625 20.1667 30.375 20.4688C30.1875 20.7708 30.0417 21.0469 29.9375 21.2969C29.7917 21.6615 29.7188 22.0833 29.7188 22.5625C29.7188 23.0417 29.8802 23.4167 30.2031 23.6875C30.276 23.75 30.3542 23.7812 30.4375 23.7812C30.6146 23.7812 30.7969 23.6302 30.9844 23.3281C31.2448 22.8073 31.3854 22.3229 31.4062 21.875C31.4375 21.4271 31.4531 21.1354 31.4531 21C31.4531 20.4271 31.3802 19.9219 31.2344 19.4844ZM45.3594 21.25C45.1927 20.5938 45.1094 19.6615 45.1094 18.4531C45.1094 17.7344 45.1406 16.9167 45.2031 16C45.3385 13.7812 45.4062 12.3542 45.4062 11.7188V11.0469L45.2031 11.2812C45.0156 11.5 44.8021 11.7969 44.5625 12.1719C44.3333 12.5365 44.125 12.9167 43.9375 13.3125C43.7604 13.6667 43.5625 14.1042 43.3438 14.625C43.1354 15.1354 42.8385 15.875 42.4531 16.8438C42.1615 17.5833 41.9271 18.1458 41.75 18.5312C41.5729 18.9167 41.4167 19.1927 41.2812 19.3594C41.1562 19.5156 41.0156 19.6198 40.8594 19.6719C40.6615 19.7448 40.4688 19.7865 40.2812 19.7969C40.0938 19.7969 39.9635 19.7969 39.8906 19.7969C39.6719 19.7969 39.474 19.776 39.2969 19.7344C38.6406 19.5469 38.1042 19.1562 37.6875 18.5625C37.2708 17.9688 36.9688 17.3021 36.7812 16.5625C36.5938 15.8125 36.5 15.1354 36.5 14.5312C36.5 13.8438 36.5312 13.2917 36.5938 12.875C36.6458 12.4479 36.75 12.0312 36.9062 11.625C37.1562 10.9479 37.75 10.5781 38.6875 10.5156H38.9688C39.9896 10.5156 40.6667 10.8385 41 11.4844C41.0417 11.5573 41.0729 11.6406 41.0938 11.7344C41.1146 11.8177 41.125 11.9635 41.125 12.1719C41.125 12.3802 41.125 12.6927 41.125 13.1094C41.125 13.526 41.1146 13.9583 41.0938 14.4062C41.0729 14.8542 41.0469 15.25 41.0156 15.5938C40.9844 15.9062 40.9635 16.1823 40.9531 16.4219C40.9427 16.651 40.9375 16.7917 40.9375 16.8438C40.9375 16.8646 40.9427 16.875 40.9531 16.875C40.9844 16.875 41.0729 16.7135 41.2188 16.3906C42.5729 13.3906 43.7344 11.3646 44.7031 10.3125C45.1719 9.85417 45.6719 9.625 46.2031 9.625C46.3594 9.625 46.5208 9.64583 46.6875 9.6875C47.3854 9.875 47.9323 10.3281 48.3281 11.0469C48.6927 11.8073 48.901 12.5781 48.9531 13.3594C49.0052 14.1302 49.0312 14.8177 49.0312 15.4219C49.0312 15.724 49.026 16.0208 49.0156 16.3125C49.0052 16.6875 49 17.0417 49 17.375C49 19.0104 49.0104 20.2083 49.0312 20.9688C49.0521 21.9792 49.151 22.4844 49.3281 22.4844H49.3594C49.5573 22.4115 49.8854 21.8802 50.3438 20.8906C50.7812 19.9323 51.1458 18.9167 51.4375 17.8438C51.7396 16.7604 51.9948 15.7396 52.2031 14.7812C52.2865 14.3854 52.3698 14.0208 52.4531 13.6875C52.5365 13.5521 52.651 13.474 52.7969 13.4531C52.9427 13.4219 53.0521 13.4062 53.125 13.4062C53.25 13.4062 53.3698 13.4271 53.4844 13.4688C53.6719 13.5312 53.7656 13.6354 53.7656 13.7812C53.7656 13.9896 53.651 14.5833 53.4219 15.5625C53.2031 16.5312 52.9635 17.5208 52.7031 18.5312C52.4427 19.5312 52.2344 20.25 52.0781 20.6875C51.8802 21.2604 51.6406 21.8177 51.3594 22.3594C51.0885 22.901 50.7344 23.3438 50.2969 23.6875C49.8594 24.0417 49.3021 24.224 48.625 24.2344C47.8333 24.2135 47.1406 23.9219 46.5469 23.3594C45.9635 22.8073 45.5677 22.1042 45.3594 21.25ZM60.8906 22.6719C59.9219 21.7344 59.3125 20.2969 59.0625 18.3594L59 17.7969L58.7031 18.3594C58.3594 19.0052 57.9583 19.4115 57.5 19.5781C57.0417 19.7344 56.6354 19.8125 56.2812 19.8125C56.0417 19.8125 55.7969 19.7865 55.5469 19.7344C54.9219 19.5885 54.3594 19.3073 53.8594 18.8906C52.9531 18.0677 52.4531 17.2656 52.3594 16.4844C52.2656 15.7031 52.2188 15.1771 52.2188 14.9062C52.2188 13.9271 52.4375 12.9896 52.875 12.0938C53.4479 10.9375 54.3698 10.1458 55.6406 9.71875C56.2031 9.55208 56.7708 9.46875 57.3438 9.46875C57.5 9.46875 57.6615 9.47396 57.8281 9.48438C58.5573 9.55729 59.1562 9.8125 59.625 10.25C59.7292 10.3542 59.8021 10.4062 59.8438 10.4062C59.8542 10.4062 59.8646 10.401 59.875 10.3906C59.9271 10.3073 60.0521 10.2396 60.25 10.1875C60.4479 10.125 60.6719 10.0938 60.9219 10.0938C61.4531 10.0938 61.8438 10.2344 62.0938 10.5156C62.3542 10.7969 62.5417 11.2917 62.6562 12C62.7917 12.8021 62.901 13.9167 62.9844 15.3438C63.1094 17.4792 63.3021 19.1615 63.5625 20.3906C63.7812 21.3281 63.9844 21.7969 64.1719 21.7969C64.1927 21.7969 64.2135 21.7917 64.2344 21.7812C64.4323 21.6458 64.6823 21.1667 64.9844 20.3438C65.3385 19.4271 65.6562 18.3021 65.9375 16.9688C66.2188 15.6354 66.3594 14.5521 66.3594 13.7188C66.3594 13.6146 66.3698 13.5469 66.3906 13.5156C66.4115 13.474 66.4688 13.4375 66.5625 13.4062C66.7083 13.3542 66.8542 13.3281 67 13.3281C67.0833 13.3281 67.1615 13.3333 67.2344 13.3438C67.4635 13.3958 67.5781 13.4844 67.5781 13.6094C67.5677 14.6615 67.4271 15.9792 67.1562 17.5625C66.8958 19.1458 66.6094 20.474 66.2969 21.5469C66.0156 22.401 65.599 22.974 65.0469 23.2656C64.4948 23.5573 63.9583 23.7031 63.4375 23.7031C63.25 23.7031 63.0573 23.6875 62.8594 23.6562C62.1198 23.5417 61.4635 23.2135 60.8906 22.6719ZM58.7031 14.0781L58.7656 13.8594C58.9219 13.4531 59.0208 13.1719 59.0625 13.0156C59.1146 12.849 59.1406 12.724 59.1406 12.6406C59.1406 12.6094 59.1354 12.5781 59.125 12.5469C59.0938 12.4635 59.0312 12.3646 58.9375 12.25C58.9271 12.2292 58.9115 12.2083 58.8906 12.1875C58.5156 11.7292 58.224 11.5 58.0156 11.5H57.9688C57.75 11.5417 57.5938 11.7448 57.5 12.1094C57.4062 12.4635 57.3333 12.8646 57.2812 13.3125C57.2708 13.4167 57.2552 13.5156 57.2344 13.6094C57.1719 14.099 57.125 14.625 57.0938 15.1875C57.0625 15.7396 57.0469 16.1719 57.0469 16.4844C57.0469 16.651 57.0521 16.7969 57.0625 16.9219C57.0833 17.2135 57.1354 17.3594 57.2188 17.3594C57.25 17.3594 57.2865 17.3385 57.3281 17.2969C57.474 17.151 57.6354 16.8698 57.8125 16.4531C58 16.026 58.1719 15.5938 58.3281 15.1562C58.4844 14.7083 58.5938 14.3854 58.6562 14.1875C58.6771 14.125 58.6927 14.0885 58.7031 14.0781ZM67.4688 20.125C66.9271 19.1146 66.5469 17.6146 66.3281 15.625C66.2656 14.9896 66.2344 14.0625 66.2344 12.8438C66.2344 11.6354 66.2656 10.5208 66.3281 9.5L66.375 8.90625H65.9688C65.6042 8.89583 65.2708 8.84896 64.9688 8.76562C64.6562 8.67188 64.4531 8.5625 64.3594 8.4375C64.3281 8.39583 64.3125 8.34896 64.3125 8.29688C64.3125 8.25521 64.3229 8.21354 64.3438 8.17188C64.3854 8.07812 64.4688 7.99479 64.5938 7.92188C64.8854 7.75521 65.349 7.67188 65.9844 7.67188H66.5312L66.5625 7.51562C66.7604 6.60938 66.9688 5.93229 67.1875 5.48438C67.4062 5.02604 67.6823 4.71875 68.0156 4.5625C68.3073 4.42708 68.6302 4.35938 68.9844 4.35938H69.1875C69.625 4.39062 69.974 4.50521 70.2344 4.70312C70.4115 4.85938 70.5365 5.11458 70.6094 5.46875C70.6927 5.82292 70.7344 6.34375 70.7344 7.03125V7.84375L71.2344 7.875C72.099 7.94792 72.7031 8.02083 73.0469 8.09375C73.3906 8.15625 73.5885 8.25 73.6406 8.375C73.6615 8.41667 73.6719 8.45833 73.6719 8.5C73.6719 8.60417 73.5781 8.70312 73.3906 8.79688C73.3177 8.83854 73.2396 8.86979 73.1562 8.89062C73.0729 8.91146 72.9375 8.92708 72.75 8.9375C72.5625 8.9375 72.2812 8.94271 71.9062 8.95312C71.6667 8.95312 71.4688 8.95833 71.3125 8.96875C71.1667 8.96875 71.0469 8.97396 70.9531 8.98438C70.8698 8.98438 70.8073 8.98958 70.7656 9C70.724 9.01042 70.6927 9.02604 70.6719 9.04688C70.6615 9.05729 70.651 9.07292 70.6406 9.09375C70.6302 9.1875 70.6146 9.53646 70.5938 10.1406C70.5833 10.7448 70.5677 11.4531 70.5469 12.2656C70.526 13.0781 70.5156 13.75 70.5156 14.2812C70.5156 14.8021 70.5156 15.1875 70.5156 15.4375V16.0156C70.5781 17.9531 70.8438 19.4375 71.3125 20.4688C71.6458 21.1979 71.974 21.5625 72.2969 21.5625C72.3281 21.5625 72.3594 21.5573 72.3906 21.5469C72.7344 21.4844 73.0521 21.1562 73.3438 20.5625C73.6458 19.9688 73.9115 19.2812 74.1406 18.5C74.3802 17.7188 74.5677 17.0052 74.7031 16.3594C74.849 15.7031 74.9375 15.2812 74.9688 15.0938C75.0417 14.6042 75.1146 14.2604 75.1875 14.0625C75.2604 13.8542 75.349 13.724 75.4531 13.6719C75.526 13.6406 75.6406 13.625 75.7969 13.625C75.9635 13.6146 76.1198 13.6198 76.2656 13.6406C76.4219 13.651 76.526 13.6771 76.5781 13.7188C76.651 13.7708 76.6875 13.9271 76.6875 14.1875C76.6875 14.4375 76.6562 14.7812 76.5938 15.2188C76.4688 16.1771 76.2552 17.2344 75.9531 18.3906C75.6615 19.5469 75.2083 20.5729 74.5938 21.4688C73.9792 22.3646 73.1302 22.901 72.0469 23.0781C71.901 23.099 71.7552 23.1094 71.6094 23.1094C70.8906 23.1094 70.1875 22.8906 69.5 22.4531C68.6771 21.9219 68 21.1458 67.4688 20.125Z" fill="black"/>
</mask>
<g mask="url(#mask1_246_506)">
<rect width="136.8" height="31" fill="url(#paint1_linear_246_506)"/>
</g>
<defs>
<linearGradient id="paint0_linear_246_506" x1="-0.758301" y1="0" x2="143.716" y2="31.9156" gradientUnits="userSpaceOnUse">
<stop stop-color="#8E54E9"/>
<stop offset="1" stop-color="#E29587"/>
</linearGradient>
<linearGradient id="paint1_linear_246_506" x1="0" y1="0" x2="136.472" y2="32.3824" gradientUnits="userSpaceOnUse">
<stop stop-color="#8E54E9"/>
<stop offset="1" stop-color="#E29587"/>
</linearGradient>
</defs>
</svg>
