<svg width="24" height="22" viewBox="0 0 24 22" fill="none" xmlns="http://www.w3.org/2000/svg">
<path d="M23.2174 0.5H6.78261C6.35039 0.5 6 0.947715 6 1.5V2.5C6 3.05228 6.35039 3.5 6.78261 3.5H23.2174C23.6496 3.5 24 3.05228 24 2.5V1.5C24 0.947715 23.6496 0.5 23.2174 0.5Z" fill="#DCDEE6"/>
<path d="M22.9565 9.5H1.04348C0.467181 9.5 0 9.94772 0 10.5V11.5C0 12.0523 0.467181 12.5 1.04348 12.5H22.9565C23.5328 12.5 24 12.0523 24 11.5V10.5C24 9.94772 23.5328 9.5 22.9565 9.5Z" fill="#DCDEE6"/>
<path d="M23.4783 18.5H12.5217C12.2336 18.5 12 18.9477 12 19.5V20.5C12 21.0523 12.2336 21.5 12.5217 21.5H23.4783C23.7664 21.5 24 21.0523 24 20.5V19.5C24 18.9477 23.7664 18.5 23.4783 18.5Z" fill="#DCDEE6"/>
</svg>
